<?xml version="1.0" encoding="UTF-8"?>
<svg xmlns="http://www.w3.org/2000/svg" xmlns:xlink="http://www.w3.org/1999/xlink" width="2400" height="2400" viewBox="0 0 2400 2400">

<path fill-rule="evenodd" fill="rgb(99.21875%, 76.951599%, 20.776367%)" fill-opacity="1" d="M 1200 600.050781 C 1531.371094 600.050781 1800 868.679688 1800 1200.050781 C 1800 1531.425781 1531.371094 1800.054688 1200 1800.054688 C 868.628906 1800.054688 600 1531.425781 600 1200.050781 C 600 868.679688 868.628906 600.050781 1200 600.050781 "/>
<path fill-rule="evenodd" fill="rgb(78.90625%, 53.318787%, 15.696716%)" fill-opacity="1" d="M 1200 720.058594 C 1465.089844 720.058594 1679.988281 934.960938 1679.988281 1200.050781 C 1679.988281 1465.144531 1465.089844 1680.042969 1200 1680.042969 C 934.90625 1680.042969 720.011719 1465.144531 720.011719 1200.050781 C 720.011719 934.960938 934.90625 720.058594 1200 720.058594 Z M 1200 752.339844 C 1447.269531 752.339844 1647.71875 952.789062 1647.71875 1200.050781 C 1647.71875 1447.320312 1447.269531 1647.769531 1200 1647.769531 C 952.730469 1647.769531 752.285156 1447.320312 752.285156 1200.050781 C 752.285156 952.789062 952.730469 752.339844 1200 752.339844 "/>
<path fill-rule="evenodd" fill="rgb(99.21875%, 68.943787%, 18.821716%)" fill-opacity="1" d="M 1799.980469 1198.730469 L 1800 1200.050781 C 1800 1529.808594 1533.96875 1797.390625 1204.828125 1799.992188 L 1204.828125 1725.160156 C 1492.648438 1722.5625 1725.171875 1488.484375 1725.171875 1200.050781 L 1725.148438 1198.730469 L 1799.980469 1198.730469 "/>
<path fill-rule="evenodd" fill="rgb(100%, 81.639099%, 31.37207%)" fill-opacity="1" d="M 620.121094 1046.050781 L 620.449219 1044.761719 C 705.796875 726.238281 1032.011719 536.628906 1350.609375 619.308594 L 1331.238281 691.589844 C 1052.558594 619.609375 767.382812 785.53125 692.730469 1064.128906 L 692.402344 1065.421875 L 620.121094 1046.050781 "/>
<path fill-rule="evenodd" fill="rgb(94.921875%, 63.084412%, 17.259216%)" fill-opacity="1" d="M 1200 689.410156 C 1482.019531 689.410156 1710.648438 918.03125 1710.648438 1200.050781 C 1710.648438 1482.078125 1482.019531 1710.703125 1200 1710.703125 C 917.976562 1710.703125 689.351562 1482.078125 689.351562 1200.050781 C 689.351562 918.03125 917.976562 689.410156 1200 689.410156 Z M 1200 723.738281 C 1463.058594 723.738281 1676.308594 936.988281 1676.308594 1200.050781 C 1676.308594 1463.117188 1463.058594 1676.367188 1200 1676.367188 C 936.9375 1676.367188 723.6875 1463.117188 723.6875 1200.050781 C 723.6875 936.988281 936.9375 723.738281 1200 723.738281 "/>
<path fill-rule="evenodd" fill="rgb(94.921875%, 63.084412%, 17.259216%)" fill-opacity="1" d="M 928.9375 1200.050781 L 990.199219 1138.78125 L 1051.460938 1200.039062 L 1056.269531 1237.308594 L 995.007812 1298.570312 L 933.75 1237.320312 Z M 1262.160156 1200.019531 L 1200 1137.859375 L 1154.058594 1183.789062 L 1148.78125 1189.070312 L 1137.890625 1199.960938 L 1137.808594 1200.039062 L 1142.621094 1237.308594 L 1142.699219 1237.398438 L 1204.808594 1299.511719 L 1267 1237.320312 L 1262.191406 1200.050781 L 1262.160156 1200.03125 Z M 1350.390625 1320.730469 L 1200 1471.113281 L 1054.429688 1325.550781 L 1099.53125 1280.578125 L 1204.808594 1385.859375 L 1310.140625 1280.53125 Z M 1094.71875 1243.328125 L 1094.71875 1243.308594 L 1033.371094 1304.488281 L 1038.179688 1341.75 L 1204.808594 1508.378906 L 1371.398438 1341.789062 L 1371.429688 1341.761719 L 1366.621094 1304.488281 L 1305.328125 1243.269531 L 1200 1348.601562 Z M 1158.839844 1221.078125 L 1204.808594 1175.128906 L 1245.96875 1216.28125 L 1200 1262.25 Z M 1353.351562 1237.351562 L 1414.609375 1298.601562 L 1475.871094 1237.339844 L 1471.058594 1200.078125 L 1409.800781 1138.820312 L 1348.539062 1200.078125 Z M 1366.589844 1095.578125 L 1200 928.988281 L 1033.460938 1095.53125 L 1038.269531 1132.800781 L 1099.53125 1194.058594 L 1204.808594 1088.78125 L 1310.140625 1194.109375 L 1371.398438 1132.851562 Z M 1094.71875 1156.789062 L 1054.5 1116.570312 L 1204.808594 966.261719 L 1350.371094 1111.808594 L 1305.328125 1156.839844 L 1200 1051.511719 L 1094.71875 1156.789062 "/>
<path fill-rule="evenodd" fill="rgb(100%, 100%, 100%)" fill-opacity="1" d="M 1094.71875 1156.800781 L 1200 1051.511719 L 1305.328125 1156.839844 L 1366.589844 1095.578125 L 1200 928.988281 L 1033.460938 1095.53125 L 1094.71875 1156.789062 Z M 1262.128906 1200.019531 L 1262.160156 1200.019531 L 1200 1137.859375 L 1154.058594 1183.789062 L 1148.78125 1189.070312 L 1137.890625 1199.960938 L 1137.808594 1200.039062 L 1137.890625 1200.128906 L 1200 1262.25 L 1262.160156 1200.089844 L 1262.191406 1200.050781 L 1262.140625 1200.019531 Z M 1094.71875 1243.320312 L 1200 1348.601562 L 1305.328125 1243.269531 L 1366.621094 1304.488281 L 1366.589844 1304.53125 L 1200 1471.113281 L 1033.460938 1304.570312 L 1033.371094 1304.488281 L 1094.71875 1243.308594 Z M 928.9375 1200.050781 L 990.199219 1138.78125 L 1051.460938 1200.039062 L 990.195312 1261.300781 Z M 1262.128906 1200.019531 Z M 1348.539062 1200.078125 L 1409.800781 1138.820312 L 1471.058594 1200.078125 L 1409.800781 1261.339844 L 1348.539062 1200.078125 "/>
</svg>
